# xmcd
#
# Track frame offsets:
#	150
#	19710
#	26667
#	32592
#	44985
#	62470
#	77340
#	92875
#	108950
#	138067
#	160567
#	176522
#	185325
#	207377
#	229097
#
# Disc length: 3336 seconds
#
# Revision: 1
# Processed by: cddbd v1.5.1PL0 Copyright (c) Steve Scherf et al.
# Submitted via: CDex 1.50Beta5
#
DISCID=b60d060f
DTITLE=テレサ・テン - NHKホール・コンサートライブ
DYEAR=1998
DGENRE=Pop
TTITLE0=空港
TTITLE1=アカシアの夢はどこですか
TTITLE2=ふるさとはどこですか
TTITLE3=夜のフェリーボート
TTITLE4=船歌
TTITLE5=海韻
TTITLE6=何日君再來
TTITLE7=夜來香
TTITLE8=POWER OF LOVE,THE
TTITLE9=I JUST CALLED TO SAY I LOVE YOU
TTITLE10=つぐない
TTITLE11=乱されて
TTITLE12=今でも
TTITLE13=ジェルソミーナの歩いた道
TTITLE14=愛人
EXTD=
EXTT0=
EXTT1=
EXTT2=
EXTT3=
EXTT4=
EXTT5=
EXTT6=
EXTT7=
EXTT8=
EXTT9=
EXTT10=
EXTT11=
EXTT12=
EXTT13=
EXTT14=
PLAYORDER=
